<svg width="48" height="48" viewBox="0 0 48 48" fill="none" xmlns="http://www.w3.org/2000/svg">
<path d="M8.26974 4.49921H0V7.28513H6.35567L16.5938 29.5709H40.9497V26.7856H18.5075L8.26974 4.49921Z" fill="white"/>
<path d="M14.6254 10.0709L20.4758 24.0001H40.9497L46.8 10.0709H14.6254ZM38.973 21.2142H22.4568L18.9462 12.8567H42.4811L38.973 21.2142Z" fill="white"/>
<path d="M21.9382 32.3573C19.5145 32.3573 17.5506 34.2287 17.5506 36.536C17.5506 38.8426 19.5144 40.7149 21.9382 40.7149C24.3601 40.7149 26.3246 38.8426 26.3246 36.536C26.3246 34.2287 24.3601 32.3573 21.9382 32.3573ZM21.9382 37.9287C21.1315 37.9287 20.4758 37.3031 20.4758 36.5361C20.4758 35.7687 21.1314 35.1432 21.9382 35.1432C22.7451 35.1432 23.4008 35.7688 23.4008 36.5361C23.4007 37.3031 22.7451 37.9287 21.9382 37.9287Z" fill="white"/>
<path d="M36.5624 32.3573C34.1401 32.3573 32.1746 34.2287 32.1746 36.536C32.1746 38.8426 34.1401 40.7149 36.5624 40.7149C38.9847 40.7149 40.9497 38.8426 40.9497 36.536C40.9497 34.2287 38.9847 32.3573 36.5624 32.3573ZM36.5624 37.9287C35.757 37.9287 35.1003 37.3031 35.1003 36.5361C35.1003 35.7687 35.7571 35.1432 36.5624 35.1432C37.3673 35.1432 38.0249 35.7688 38.0249 36.5361C38.0249 37.3031 37.3682 37.9287 36.5624 37.9287Z" fill="white"/>
</svg>
