<svg width="40" height="40" viewBox="0 0 40 40" fill="none" xmlns="http://www.w3.org/2000/svg">
<g clip-path="url(#clip0)">
<path d="M28.0342 4.80412C21.6299 -1.60138 11.2087 -1.60138 4.80354 4.80412C-1.60118 11.2087 -1.60118 21.6296 4.80354 28.0338C10.9888 34.2193 20.9188 34.4299 27.3609 28.6692L28.6631 29.9714C28.3387 30.802 28.5086 31.7799 29.1787 32.4505L36.0506 39.3224C36.9544 40.2262 38.4194 40.2257 39.3222 39.3224C40.226 38.4192 40.226 36.9541 39.3222 36.0504L32.4509 29.1798C31.7802 28.5092 30.8015 28.3393 29.9718 28.6637L28.6695 27.361C34.4311 20.9184 34.2196 10.9886 28.0342 4.80412ZM6.76685 26.0717C1.44452 20.7494 1.44452 12.0895 6.76685 6.76714C12.0892 1.44433 20.7493 1.44481 26.0716 6.76714C31.394 12.0895 31.394 20.7498 26.0716 26.0721C20.7493 31.3945 12.0891 31.394 6.76685 26.0717Z" fill="white"/>
<path d="M10.0098 9.89049C12.3345 7.56603 15.0363 5.87819 17.8776 4.8262C14.6588 4.64233 11.2114 5.89494 8.56603 8.53979C5.88409 11.2217 4.63506 14.7288 4.86279 17.9869C5.90714 15.062 7.62247 12.2779 10.0098 9.89049Z" fill="white"/>
</g>
<defs>
<clipPath id="clip0">
<rect width="40" height="40" fill="white"/>
</clipPath>
</defs>
</svg>
